<svg width="315" height="173" viewBox="0 0 315 173" fill="none" xmlns="http://www.w3.org/2000/svg">
<path fill-rule="evenodd" clip-rule="evenodd" d="M177.81 171.589H88.0542C84.6279 171.589 81.851 168.863 81.851 165.5V22.0492C81.851 18.6855 84.6279 15.9594 88.0542 15.9594H177.81C174.384 15.9594 171.607 18.6855 171.607 22.0492V165.5C171.585 168.841 174.384 171.589 177.81 171.589Z" fill="#FEBA91"/>
<path fill-rule="evenodd" clip-rule="evenodd" d="M106.014 28.095L113.785 1.97709C114.076 1.00976 115.107 0.46014 116.092 0.723957L174.519 17.4544V34.4266" fill="white"/>
<path fill-rule="evenodd" clip-rule="evenodd" d="M113.141 1.79018C113.529 0.502397 114.883 -0.246912 116.215 0.074118L116.28 0.0907717L174.707 16.8212C174.98 16.8995 175.172 17.1381 175.189 17.4146L175.19 17.4543V34.4266C175.19 34.7908 174.89 35.0861 174.519 35.0861C174.161 35.0861 173.868 34.8115 173.848 34.4653L173.847 34.4266L173.846 17.9488L115.915 1.36023C115.293 1.19365 114.649 1.52849 114.445 2.11514L114.43 2.16198L106.659 28.2799C106.555 28.6295 106.182 28.8302 105.826 28.728C105.483 28.6296 105.28 28.2855 105.36 27.9475L105.37 27.91L113.141 1.79018Z" fill="#2E186A"/>
<path fill-rule="evenodd" clip-rule="evenodd" d="M123.285 8.45308C123.386 8.11619 123.736 7.91781 124.08 7.99555L124.118 8.00533L172.826 21.9657C173.182 22.0677 173.386 22.4339 173.282 22.7836C173.182 23.1208 172.832 23.3194 172.487 23.2417L172.449 23.2319L124.353 9.4466L124.322 9.52222C123.108 12.355 120 13.9807 116.92 13.3569L116.862 13.3447L112.258 28.8077C112.157 29.1448 111.807 29.3433 111.463 29.2654L111.424 29.2556C111.081 29.1571 110.879 28.813 110.958 28.475L110.968 28.4375L115.761 12.3447C115.867 11.9858 116.256 11.7858 116.618 11.904L116.666 11.9205L116.784 11.9656L116.857 11.986C119.579 12.7216 122.42 11.1891 123.26 8.53468L123.285 8.45308Z" fill="#2E186A"/>
<path fill-rule="evenodd" clip-rule="evenodd" d="M96.3401 66.3924L99.7217 29.3921C99.8113 28.3808 100.707 27.6553 101.737 27.7432L172.19 33.833V64.018" fill="white"/>
<path fill-rule="evenodd" clip-rule="evenodd" d="M99.0524 29.3349C99.1722 27.9833 100.357 26.9978 101.731 27.0814L101.796 27.0862L172.249 33.176C172.582 33.2048 172.841 33.4696 172.86 33.7938L172.861 33.833V64.0181C172.861 64.3823 172.561 64.6776 172.19 64.6776C171.832 64.6776 171.539 64.403 171.519 64.0568L171.518 64.0181V34.4369L101.679 28.4003C101.031 28.3449 100.476 28.7824 100.396 29.4029L100.391 29.451L97.0093 66.4514C96.9762 66.8142 96.6497 67.0819 96.2802 67.0493C95.9238 67.0179 95.6575 66.7188 95.6687 66.3722L95.6711 66.3335L99.0524 29.3349Z" fill="#2E186A"/>
<path fill-rule="evenodd" clip-rule="evenodd" d="M112.333 34.3013C112.365 33.9517 112.669 33.6905 113.022 33.7014L113.061 33.7037L171.466 38.8262C171.835 38.8586 172.108 39.179 172.075 39.5418C172.043 39.8916 171.739 40.1532 171.386 40.1423L171.346 40.14L113.575 35.0732L113.572 35.09C112.906 38.3798 109.665 40.733 105.94 40.6302L105.886 40.628L103.526 66.4952C103.494 66.8451 103.19 67.1065 102.836 67.0956L102.797 67.0933C102.441 67.062 102.174 66.7629 102.185 66.4163L102.188 66.3776L104.606 39.8639C104.637 39.5239 104.928 39.2632 105.276 39.2632C105.335 39.2632 105.375 39.2665 105.44 39.275L105.508 39.2849C105.507 39.2851 105.505 39.2852 105.5 39.2852L105.529 39.2858L105.558 39.2877C109.03 39.5867 112.053 37.3343 112.333 34.3013Z" fill="#2E186A"/>
<path fill-rule="evenodd" clip-rule="evenodd" d="M122.273 65.8428C122.644 65.8428 122.945 66.1381 122.945 66.5023C122.945 66.8536 122.665 67.1407 122.312 67.1607L122.273 67.1619H89.8012C89.4301 67.1619 89.1293 66.8666 89.1293 66.5023C89.1293 66.1511 89.409 65.864 89.7617 65.8439L89.8012 65.8428H122.273Z" fill="#2E186A"/>
<path fill-rule="evenodd" clip-rule="evenodd" d="M89.801 68.0412C90.6668 68.0412 91.3686 67.3522 91.3686 66.5023C91.3686 65.6524 90.6668 64.9634 89.801 64.9634C88.9352 64.9634 88.2334 65.6524 88.2334 66.5023C88.2334 67.3522 88.9352 68.0412 89.801 68.0412Z" fill="#2E186A"/>
<path fill-rule="evenodd" clip-rule="evenodd" d="M135.037 171.589H126.528C124.311 171.589 122.497 169.809 122.497 167.632V53.0916C122.497 50.9151 124.311 49.1344 126.528 49.1344H131.006C133.223 49.1344 135.037 50.9151 135.037 53.0916V171.589Z" fill="#2E186A"/>
<path fill-rule="evenodd" clip-rule="evenodd" d="M237.379 171.611H131.186C133.649 171.611 135.664 169.633 135.664 167.214V53.5313C135.664 51.113 133.649 49.1344 131.186 49.1344H237.379C239.843 49.1344 241.858 51.113 241.858 53.5313V167.214C241.858 169.655 239.843 171.611 237.379 171.611Z" fill="#5D21D1"/>
<path fill-rule="evenodd" clip-rule="evenodd" d="M131.006 49.1344C133.563 49.1344 135.666 51.0324 135.709 53.4128L135.709 53.4873V171.238C135.709 171.602 135.408 171.897 135.037 171.897C134.68 171.897 134.387 171.623 134.367 171.276L134.366 171.238V53.4873C134.366 51.8225 132.868 50.4535 131.006 50.4535C130.635 50.4535 130.335 50.1582 130.335 49.7939C130.335 49.4297 130.635 49.1344 131.006 49.1344Z" fill="#2E186A"/>
<path fill-rule="evenodd" clip-rule="evenodd" d="M122.452 56.2574C122.823 56.2574 123.124 56.5527 123.124 56.917C123.124 57.2682 122.844 57.5554 122.491 57.5754L122.452 57.5765H116.002C115.631 57.5765 115.331 57.2812 115.331 56.917C115.331 56.5657 115.61 56.2786 115.963 56.2586L116.002 56.2574H122.452Z" fill="#2E186A"/>
<path fill-rule="evenodd" clip-rule="evenodd" d="M122.452 61.0061C122.823 61.0061 123.124 61.3014 123.124 61.6657C123.124 62.0169 122.844 62.304 122.491 62.3241L122.452 62.3252H116.002C115.631 62.3252 115.331 62.0299 115.331 61.6657C115.331 61.3144 115.61 61.0273 115.963 61.0073L116.002 61.0061H122.452Z" fill="#2E186A"/>
<path fill-rule="evenodd" clip-rule="evenodd" d="M122.452 70.5256C122.823 70.5256 123.124 70.8209 123.124 71.1851C123.124 71.5364 122.844 71.8235 122.491 71.8435L122.452 71.8447H116.002C115.631 71.8447 115.331 71.5494 115.331 71.1851C115.331 70.8339 115.61 70.5468 115.963 70.5267L116.002 70.5256H122.452Z" fill="#2E186A"/>
<path fill-rule="evenodd" clip-rule="evenodd" d="M122.452 75.2743C122.823 75.2743 123.124 75.5695 123.124 75.9338C123.124 76.285 122.844 76.5722 122.491 76.5922L122.452 76.5933H116.002C115.631 76.5933 115.331 76.2981 115.331 75.9338C115.331 75.5826 115.61 75.2954 115.963 75.2754L116.002 75.2743H122.452Z" fill="#2E186A"/>
<path fill-rule="evenodd" clip-rule="evenodd" d="M122.452 80.0229C122.823 80.0229 123.124 80.3182 123.124 80.6825C123.124 81.0337 122.844 81.3209 122.491 81.3409L122.452 81.342H116.002C115.631 81.342 115.331 81.0467 115.331 80.6825C115.331 80.3312 115.61 80.0441 115.963 80.0241L116.002 80.0229H122.452Z" fill="#2E186A"/>
<path fill-rule="evenodd" clip-rule="evenodd" d="M122.452 84.7936C122.823 84.7936 123.124 85.0889 123.124 85.4532C123.124 85.8044 122.844 86.0916 122.491 86.1116L122.452 86.1127H116.002C115.631 86.1127 115.331 85.8174 115.331 85.4532C115.331 85.1019 115.61 84.8148 115.963 84.7948L116.002 84.7936H122.452Z" fill="#2E186A"/>
<path fill-rule="evenodd" clip-rule="evenodd" d="M122.452 89.5423C122.823 89.5423 123.124 89.8376 123.124 90.2018C123.124 90.5531 122.844 90.8402 122.491 90.8603L122.452 90.8614H116.002C115.631 90.8614 115.331 90.5661 115.331 90.2018C115.331 89.8506 115.61 89.5635 115.963 89.5434L116.002 89.5423H122.452Z" fill="#2E186A"/>
<path fill-rule="evenodd" clip-rule="evenodd" d="M122.452 94.313C122.823 94.313 123.124 94.6083 123.124 94.9726C123.124 95.3238 122.844 95.611 122.491 95.631L122.452 95.6321H116.002C115.631 95.6321 115.331 95.3368 115.331 94.9726C115.331 94.6213 115.61 94.3342 115.963 94.3142L116.002 94.313H122.452Z" fill="#2E186A"/>
<path fill-rule="evenodd" clip-rule="evenodd" d="M122.452 99.0617C122.823 99.0617 123.124 99.357 123.124 99.7213C123.124 100.073 122.844 100.36 122.491 100.38L122.452 100.381H116.002C115.631 100.381 115.331 100.086 115.331 99.7213C115.331 99.37 115.61 99.0829 115.963 99.0629L116.002 99.0617H122.452Z" fill="#2E186A"/>
<path fill-rule="evenodd" clip-rule="evenodd" d="M122.452 103.81C122.823 103.81 123.124 104.106 123.124 104.47C123.124 104.821 122.844 105.108 122.491 105.128L122.452 105.13H116.002C115.631 105.13 115.331 104.834 115.331 104.47C115.331 104.119 115.61 103.832 115.963 103.812L116.002 103.81H122.452Z" fill="#2E186A"/>
<path fill-rule="evenodd" clip-rule="evenodd" d="M122.452 108.581C122.823 108.581 123.124 108.876 123.124 109.241C123.124 109.592 122.844 109.879 122.491 109.899L122.452 109.9H116.002C115.631 109.9 115.331 109.605 115.331 109.241C115.331 108.889 115.61 108.602 115.963 108.582L116.002 108.581H122.452Z" fill="#2E186A"/>
<path fill-rule="evenodd" clip-rule="evenodd" d="M122.452 113.33C122.823 113.33 123.124 113.625 123.124 113.989C123.124 114.341 122.844 114.628 122.491 114.648L122.452 114.649H116.002C115.631 114.649 115.331 114.354 115.331 113.989C115.331 113.638 115.61 113.351 115.963 113.331L116.002 113.33H122.452Z" fill="#2E186A"/>
<path fill-rule="evenodd" clip-rule="evenodd" d="M122.452 118.079C122.823 118.079 123.124 118.374 123.124 118.738C123.124 119.089 122.844 119.376 122.491 119.397L122.452 119.398H116.002C115.631 119.398 115.331 119.102 115.331 118.738C115.331 118.387 115.61 118.1 115.963 118.08L116.002 118.079H122.452Z" fill="#2E186A"/>
<path fill-rule="evenodd" clip-rule="evenodd" d="M122.452 122.849C122.823 122.849 123.124 123.145 123.124 123.509C123.124 123.86 122.844 124.147 122.491 124.167L122.452 124.168H116.002C115.631 124.168 115.331 123.873 115.331 123.509C115.331 123.158 115.61 122.87 115.963 122.85L116.002 122.849H122.452Z" fill="#2E186A"/>
<path fill-rule="evenodd" clip-rule="evenodd" d="M122.452 127.598C122.823 127.598 123.124 127.893 123.124 128.257C123.124 128.609 122.844 128.896 122.491 128.916L122.452 128.917H116.002C115.631 128.917 115.331 128.622 115.331 128.257C115.331 127.906 115.61 127.619 115.963 127.599L116.002 127.598H122.452Z" fill="#2E186A"/>
<path fill-rule="evenodd" clip-rule="evenodd" d="M122.452 137.117C122.823 137.117 123.124 137.413 123.124 137.777C123.124 138.128 122.844 138.415 122.491 138.435L122.452 138.436H116.002C115.631 138.436 115.331 138.141 115.331 137.777C115.331 137.426 115.61 137.139 115.963 137.118L116.002 137.117H122.452Z" fill="#2E186A"/>
<path fill-rule="evenodd" clip-rule="evenodd" d="M122.452 141.866C122.823 141.866 123.124 142.161 123.124 142.526C123.124 142.877 122.844 143.164 122.491 143.184L122.452 143.185H116.002C115.631 143.185 115.331 142.89 115.331 142.526C115.331 142.174 115.61 141.887 115.963 141.867L116.002 141.866H122.452Z" fill="#2E186A"/>
<path fill-rule="evenodd" clip-rule="evenodd" d="M122.452 146.615C122.823 146.615 123.124 146.91 123.124 147.274C123.124 147.626 122.844 147.913 122.491 147.933L122.452 147.934H116.002C115.631 147.934 115.331 147.639 115.331 147.274C115.331 146.923 115.61 146.636 115.963 146.616L116.002 146.615H122.452Z" fill="#2E186A"/>
<path fill-rule="evenodd" clip-rule="evenodd" d="M122.452 151.385C122.823 151.385 123.124 151.681 123.124 152.045C123.124 152.396 122.844 152.683 122.491 152.703L122.452 152.705H116.002C115.631 152.705 115.331 152.409 115.331 152.045C115.331 151.694 115.61 151.407 115.963 151.387L116.002 151.385H122.452Z" fill="#2E186A"/>
<path fill-rule="evenodd" clip-rule="evenodd" d="M122.452 156.134C122.823 156.134 123.124 156.429 123.124 156.794C123.124 157.145 122.844 157.432 122.491 157.452L122.452 157.453H116.002C115.631 157.453 115.331 157.158 115.331 156.794C115.331 156.442 115.61 156.155 115.963 156.135L116.002 156.134H122.452Z" fill="#2E186A"/>
<path fill-rule="evenodd" clip-rule="evenodd" d="M122.452 160.883C122.823 160.883 123.124 161.178 123.124 161.542C123.124 161.894 122.844 162.181 122.491 162.201L122.452 162.202H116.002C115.631 162.202 115.331 161.907 115.331 161.542C115.331 161.191 115.61 160.904 115.963 160.884L116.002 160.883H122.452Z" fill="#2E186A"/>
<path fill-rule="evenodd" clip-rule="evenodd" d="M135.037 129.269C133.447 128.917 131.813 128.719 130.111 128.719C118.107 128.719 108.388 138.261 108.388 150.044C108.388 161.828 118.107 171.37 130.111 171.37C131.813 171.37 133.447 171.172 135.037 170.82V129.269Z" fill="white"/>
<path fill-rule="evenodd" clip-rule="evenodd" d="M135.082 149.187C134.478 149.187 133.851 149.187 133.223 149.187C133.716 147.78 134.343 146.703 135.082 145.955V142.701C134.746 142.855 134.433 143.031 134.164 143.251C133.201 143.999 132.484 144.856 132.014 145.823C131.544 146.791 131.118 147.912 130.76 149.187H129.394H120.795C120.929 147.758 121.489 146.659 122.497 145.911C123.504 145.164 124.602 144.79 125.833 144.79C126.326 144.768 126.662 144.658 126.841 144.46C127.02 144.262 127.11 143.933 127.11 143.471C127.11 142.965 126.998 142.636 126.774 142.482C126.55 142.328 126.125 142.262 125.52 142.262C124.355 142.262 123.258 142.548 122.25 143.141C121.243 143.735 120.392 144.548 119.742 145.581C119.093 146.637 118.69 147.824 118.578 149.165H115.308C115.151 149.165 115.017 149.253 114.905 149.407C114.771 149.561 114.726 149.759 114.726 150C114.726 150.22 114.793 150.418 114.927 150.572C115.062 150.726 115.219 150.814 115.398 150.814H118.6C118.69 152.199 119.048 153.452 119.653 154.595C120.257 155.716 121.108 156.618 122.161 157.255C123.236 157.893 124.445 158.223 125.811 158.223C127.379 158.223 128.633 157.805 129.573 156.992C130.514 156.178 131.208 155.277 131.611 154.287C132.037 153.298 132.44 152.133 132.843 150.77C133.447 150.77 134.231 150.77 135.172 150.792V149.187H135.082ZM128.521 154.353C127.849 155.189 126.908 155.585 125.721 155.585C124.378 155.585 123.28 155.167 122.407 154.331C121.534 153.496 121.019 152.331 120.839 150.836C122.81 150.814 125.766 150.792 129.775 150.792H130.29C129.775 152.331 129.193 153.518 128.521 154.353Z" fill="#5D21D1"/>
<path fill-rule="evenodd" clip-rule="evenodd" d="M172.212 64.6996H154.632C152.281 64.6996 150.378 66.2605 150.378 68.1731V82.1335H172.167" fill="white"/>
<rect x="150.266" y="70.6794" width="21.9464" height="3.95726" fill="#2E186A"/>
<path fill-rule="evenodd" clip-rule="evenodd" d="M172.212 109.504H154.632C152.281 109.504 150.378 111.065 150.378 112.978V126.938H172.167" fill="white"/>
<rect x="150.266" y="115.484" width="21.9464" height="3.95726" fill="#2E186A"/>
<path fill-rule="evenodd" clip-rule="evenodd" d="M172.481 81.4519C172.852 81.4519 173.152 81.7472 173.152 82.1115C173.152 82.4627 172.873 82.7498 172.52 82.7699L172.481 82.771H145.115C144.744 82.771 144.443 82.4757 144.443 82.1115C144.443 81.7602 144.723 81.4731 145.075 81.4531L145.115 81.4519H172.481Z" fill="#2E186A"/>
<path fill-rule="evenodd" clip-rule="evenodd" d="M145.115 83.6504C145.981 83.6504 146.682 82.9614 146.682 82.1115C146.682 81.2615 145.981 80.5725 145.115 80.5725C144.249 80.5725 143.547 81.2615 143.547 82.1115C143.547 82.9614 144.249 83.6504 145.115 83.6504Z" fill="#2E186A"/>
<path fill-rule="evenodd" clip-rule="evenodd" d="M172.481 126.257C172.852 126.257 173.152 126.552 173.152 126.916C173.152 127.268 172.873 127.555 172.52 127.575L172.481 127.576H145.115C144.744 127.576 144.443 127.281 144.443 126.916C144.443 126.565 144.723 126.278 145.075 126.258L145.115 126.257H172.481Z" fill="#2E186A"/>
<path fill-rule="evenodd" clip-rule="evenodd" d="M255.743 171.589H175.123C172.66 171.589 170.644 169.611 170.644 167.192V20.3343C170.644 17.916 172.66 15.9374 175.123 15.9374H255.743C258.206 15.9374 260.221 17.916 260.221 20.3343V167.192C260.221 169.611 258.206 171.589 255.743 171.589Z" fill="#FE7624"/>
<path fill-rule="evenodd" clip-rule="evenodd" d="M246.023 149.825H194.942C191.404 149.825 188.56 147.01 188.56 143.559V32.426C188.56 28.9524 191.426 26.1603 194.942 26.1603H246.023C249.562 26.1603 252.406 28.9744 252.406 32.426V143.559C252.406 147.01 249.539 149.825 246.023 149.825Z" fill="white"/>
<path fill-rule="evenodd" clip-rule="evenodd" d="M221.927 166.753C218.344 166.753 215.433 163.895 215.433 160.377C215.433 156.86 218.344 154.002 221.927 154.002C225.51 154.002 228.421 156.86 228.421 160.377C228.421 163.895 225.51 166.753 221.927 166.753ZM221.927 155.321C219.083 155.321 216.777 157.585 216.777 160.377C216.777 163.169 219.083 165.434 221.927 165.434C224.771 165.434 227.078 163.169 227.078 160.377C227.078 157.585 224.771 155.321 221.927 155.321Z" fill="#5D21D1"/>
<path fill-rule="evenodd" clip-rule="evenodd" d="M209.162 23.1923C210.028 23.1923 210.73 22.5033 210.73 21.6534C210.73 20.8035 210.028 20.1145 209.162 20.1145C208.297 20.1145 207.595 20.8035 207.595 21.6534C207.595 22.5033 208.297 23.1923 209.162 23.1923Z" fill="#5D21D1"/>
<path fill-rule="evenodd" clip-rule="evenodd" d="M231.109 22.9725H214.761C214.022 22.9725 213.417 22.3789 213.417 21.6534C213.417 20.9279 214.022 20.3343 214.761 20.3343H231.109C231.848 20.3343 232.452 20.9279 232.452 21.6534C232.452 22.3789 231.848 22.9725 231.109 22.9725Z" fill="#5D21D1"/>
<path fill-rule="evenodd" clip-rule="evenodd" d="M184.193 16.575C184.564 16.575 184.865 16.8702 184.865 17.2345C184.865 17.5987 184.564 17.894 184.193 17.894C181.078 17.894 178.534 20.3429 178.483 23.3644L178.482 23.4562V165.368C178.482 168.439 181.032 170.93 184.193 170.93C184.564 170.93 184.865 171.225 184.865 171.589C184.865 171.954 184.564 172.249 184.193 172.249C180.33 172.249 177.202 169.23 177.14 165.482L177.139 165.368V23.4562C177.139 19.662 180.306 16.575 184.193 16.575Z" fill="#2E186A"/>
<path fill-rule="evenodd" clip-rule="evenodd" d="M173.78 109.351C173.063 109.351 172.503 108.779 172.503 108.097V88.0253C172.503 87.3218 173.085 86.7722 173.78 86.7722C174.496 86.7722 175.056 87.3438 175.056 88.0253V108.097C175.056 108.779 174.496 109.351 173.78 109.351Z" fill="#2E186A"/>
<path fill-rule="evenodd" clip-rule="evenodd" d="M239.104 69.0085C238.096 68.393 236.797 68.7008 236.17 69.6681L230.93 77.9344C227.817 75.4721 223.853 73.9991 219.553 73.9991C209.543 73.9991 201.414 82.0015 201.414 91.8067C201.414 101.612 209.566 109.614 219.553 109.614C229.541 109.614 237.693 101.612 237.693 91.8067C237.693 87.7615 236.304 84.0241 233.975 81.0122L239.775 71.8666C240.402 70.9212 240.111 69.6241 239.104 69.0085ZM236.371 91.8287C236.371 100.93 228.825 108.317 219.576 108.317C210.327 108.317 202.78 100.908 202.78 91.8287C202.78 82.749 210.327 75.3402 219.576 75.3402C223.607 75.3402 227.324 76.7472 230.235 79.0995L220.74 94.0712L215.254 86.8821C214.537 85.9588 213.216 85.7829 212.275 86.4644C211.335 87.1679 211.156 88.4651 211.85 89.3884L219.217 98.9957C219.621 99.5234 220.248 99.8312 220.919 99.8312C220.942 99.8312 220.987 99.8312 221.009 99.8312C221.703 99.8092 222.353 99.4354 222.711 98.8419L233.236 82.2214C235.207 84.9475 236.371 88.2452 236.371 91.8287Z" fill="#5D21D1"/>
<path fill-rule="evenodd" clip-rule="evenodd" d="M122.205 87.8275H81.9854V20.3343C81.9854 17.916 85.4565 15.9374 87.9198 15.9374H70.9674C68.504 15.9374 66.4885 17.916 66.4885 20.3343V167.192C66.4885 169.611 68.504 171.589 70.9674 171.589H86.4642C84.0008 171.589 81.9854 169.611 81.9854 167.192V110.472H122.205C127.177 110.472 131.186 106.515 131.186 101.656V96.6434C131.186 91.7628 127.177 87.8275 122.205 87.8275Z" fill="#FE7624"/>
<path fill-rule="evenodd" clip-rule="evenodd" d="M120.436 104.316C117.48 104.316 115.062 101.942 115.062 99.0397C115.062 96.1377 117.48 93.7634 120.436 93.7634C123.392 93.7634 125.811 96.1377 125.811 99.0397C125.811 101.942 123.415 104.316 120.436 104.316ZM120.436 95.0825C118.219 95.0825 116.405 96.8633 116.405 99.0397C116.405 101.216 118.219 102.997 120.436 102.997C122.653 102.997 124.467 101.216 124.467 99.0397C124.467 96.8633 122.676 95.0825 120.436 95.0825Z" fill="#5D21D1"/>
<path fill-rule="evenodd" clip-rule="evenodd" d="M87.8751 15.7615V17.0806C84.6862 17.0806 82.3681 19.1897 82.322 22.1568L82.3213 22.247V87.7396H80.9777V22.247C80.9777 18.5226 83.8712 15.8161 87.757 15.7623L87.8751 15.7615Z" fill="#2E186A"/>
<path fill-rule="evenodd" clip-rule="evenodd" d="M82.3213 110.45V165.368C82.3213 168.408 84.8201 170.88 87.9372 170.929L88.0319 170.93V172.249C84.1692 172.249 81.0408 169.23 80.9786 165.482L80.9777 165.368V110.45H82.3213Z" fill="#2E186A"/>
<path fill-rule="evenodd" clip-rule="evenodd" d="M322.03 170.93C322.401 170.93 322.701 171.225 322.701 171.589C322.701 171.941 322.422 172.228 322.069 172.248L322.03 172.249H0.671828C0.300788 172.249 0 171.954 0 171.589C0 171.238 0.279687 170.951 0.632353 170.931L0.671828 170.93H322.03Z" fill="#2E186A"/>
</svg>
