<svg width="328" height="220" viewBox="0 0 328 220" fill="none" xmlns="http://www.w3.org/2000/svg">
<mask id="mask0_72_186" style="mask-type:alpha" maskUnits="userSpaceOnUse" x="0" y="0" width="328" height="220">
<rect width="328" height="220" fill="#C4C4C4"/>
</mask>
<g mask="url(#mask0_72_186)">
<path d="M206.857 177.692C223.224 179.688 237.267 189.781 248.823 191.164C261.666 192.7 281.09 184.262 300.897 194.194C305.995 196.75 310.181 199.822 308.622 203.641C305.904 210.294 300.183 212.901 287.653 214.709L286.316 214.894C276.629 216.182 266.218 216.494 239.826 216.669L230.808 216.737C198.636 217.017 180.03 218.524 155.938 220.448L153.482 220.647C109.116 224.298 73.7016 223.713 47.2396 219.666L46.4405 219.542C25.0611 216.194 12.2074 210.654 5.93295 204.37C2.2392 200.67 0.111511 197.22 0.00167847 193.533C-0.108154 189.846 5.33972 185.792 8.44135 184.262C17.0816 179.999 19.9008 178.453 36.5114 176.27C43.6634 175.33 54.3783 175.405 66.7637 174.987C111.195 173.487 179.834 174.397 206.857 177.692Z" fill="white"/>
<path fill-rule="evenodd" clip-rule="evenodd" d="M219.84 185.733C194.652 242.742 103.504 240.906 40.0823 201.995C27.9701 194.564 -13.6655 159.539 27.3137 139.087C68.2928 118.634 55.1671 87.2195 88.2387 49.7501C126.485 6.41853 197.708 -15.8058 247.799 42.4948C375.112 190.675 228.321 166.537 219.84 185.733Z" fill="#5D5FFC"/>
<path fill-rule="evenodd" clip-rule="evenodd" d="M51.4636 34.5635C49.1928 30.9148 46.9174 29.5148 44.679 30.7258C42.7842 31.751 42.469 34.4893 43.4772 38.87L42.873 39.1958C42.0427 39.6435 41.7326 40.6796 42.1803 41.5098C42.219 41.5817 42.2629 41.6506 42.3114 41.7161L42.6352 42.1494C47.3622 48.4199 51.1079 50.9882 54.0303 49.5759C56.4865 48.3888 56.9015 43.3328 55.6377 34.1835C55.5492 33.5427 54.9782 33.0873 54.3421 33.1335L54.2623 33.1419C54.118 33.1618 53.9784 33.2074 53.8502 33.2766L51.4636 34.5635ZM44.7612 37.8879L50.0312 35.0368L50.0188 35.0174C48.2066 32.2067 46.6713 31.3125 45.3757 32.0135L45.3162 32.0477C44.3596 32.6316 44.0944 34.4659 44.7037 37.601L44.7612 37.8879ZM54.2344 34.7324L43.5679 40.4844C43.4493 40.5484 43.405 40.6964 43.4689 40.815C43.4744 40.8252 43.4807 40.8351 43.4876 40.8445L43.8018 41.2648C48.1224 46.9959 51.3721 49.2345 53.3933 48.2577C54.9289 47.5156 55.3319 43.0084 54.2635 34.9455L54.2344 34.7324ZM52.0551 43.9549C52.306 43.6921 52.4601 43.336 52.4601 42.944C52.4601 42.1355 51.8046 41.48 50.9961 41.48C50.1875 41.48 49.5321 42.1355 49.5321 42.944C49.5321 43.7525 50.1875 44.408 50.9961 44.408C51.0597 44.408 51.1224 44.4039 51.184 44.396L52.0162 45.9238L52.0463 45.9722C52.1872 46.1718 52.4584 46.2386 52.6782 46.1189C52.9149 45.99 53.0022 45.6936 52.8733 45.4569L52.0551 43.9549Z" fill="#FFB61D"/>
<path fill-rule="evenodd" clip-rule="evenodd" d="M206.857 177.692C223.224 179.688 237.267 189.781 248.823 191.164C261.666 192.7 281.09 184.262 300.897 194.194C305.995 196.75 310.181 199.822 308.622 203.641C305.904 210.294 300.183 212.901 287.653 214.709L286.316 214.894C276.629 216.182 266.218 216.494 239.826 216.669L230.808 216.737C198.636 217.017 180.03 218.524 155.938 220.448L153.482 220.647C109.116 224.298 73.7016 223.713 47.2396 219.666L46.4405 219.542C25.0611 216.194 12.2074 210.654 5.93289 204.37C2.23917 200.67 0.11145 197.22 0.00164795 193.533C-0.108185 189.846 5.33966 185.792 8.44131 184.262C17.0815 179.999 19.9008 178.453 36.5114 176.27C43.6634 175.33 54.3783 175.405 66.7637 174.987C111.194 173.487 179.834 174.397 206.857 177.692ZM36.1447 179.358L35.0562 179.503C19.5768 181.602 9.68164 185.421 4.99414 189.229L4.7016 189.473C1.10226 192.575 0.765778 196.062 5.93954 201.216C11.5966 206.853 26.0247 213.211 46.8288 216.453C72.8739 220.511 107.89 221.689 151.864 218.16L156.474 217.789C181.862 215.792 201.34 214.73 237.389 214.477L247.341 214.403C268.803 214.208 277.925 213.824 286.731 212.6L287.569 212.48C326.455 204.874 298.396 191.226 282.298 191.164C268.511 191.111 251.952 194.989 247.341 193.537C232.806 188.962 225.343 181.957 206.857 179.716L201.482 179.072L196.893 178.856C121.687 175.362 68.0899 175.183 36.1447 179.358Z" fill="#00160A"/>
<path d="M84.8518 2.6244C84.5848 2.6158 84.3175 2.61609 84.0504 2.62528C77.4693 2.85158 72.3035 8.31712 72.4228 14.8804L72.428 15.0797L72.5088 17.539C72.7399 24.926 72.867 32.2838 72.8901 39.6124L72.9299 62.1614C72.9387 70.2771 72.9338 77.602 72.91 84.7748L72.8774 92.3817C72.7495 116.6 72.4045 133.597 71.7643 140.995L71.6406 142.379C70.8678 151.421 70.7077 164.408 71.166 181.31C71.1713 181.506 71.1812 181.701 71.1956 181.896C71.702 188.748 77.6131 193.91 84.4507 193.516L84.6582 193.502L86.9306 193.337C108.171 191.822 129.413 191.064 150.654 191.064C171.445 191.064 192.395 191.79 213.505 193.242C214.115 193.284 214.728 193.288 215.339 193.253C223.343 192.8 229.483 186.009 229.161 178.026L229.149 177.784L228.989 174.905C227.572 148.97 226.839 123.036 226.788 97.1012L226.785 94.2196C226.785 75.317 227.67 49.3928 229.44 16.4355C229.46 16.0663 229.464 15.6964 229.453 15.3269C229.23 8.17276 223.308 2.53815 216.178 2.64414L215.961 2.64911L205.169 2.97633C180.649 3.69953 162.795 4.07743 151.596 4.10993L149.676 4.11208L147.701 4.10696C136.268 4.05786 118.569 3.66577 94.5937 2.93079L84.8518 2.6244Z" fill="white"/>
<path fill-rule="evenodd" clip-rule="evenodd" d="M215.125 1.95203C214.26 2.42573 213.121 2.75893 211.707 2.95119C215.347 3.27452 218.208 3.19908 220.292 2.72509L219.841 2.66933C218.374 2.48404 216.802 2.24494 215.125 1.95203Z" fill="#E7EAEE"/>
<path fill-rule="evenodd" clip-rule="evenodd" d="M78.2283 176.47L78.3296 176.474C78.9587 176.517 79.4023 177.009 79.3444 177.551C79.2782 178.171 78.6149 178.774 77.8906 178.824C77.315 178.863 76.9151 178.42 76.979 177.733C77.046 177.012 77.611 176.472 78.2283 176.47Z" fill="#E7EAEE"/>
<path fill-rule="evenodd" clip-rule="evenodd" d="M89.7482 185.895L89.8495 185.899C90.4786 185.943 90.9222 186.434 90.8643 186.976C90.7981 187.597 90.1348 188.199 89.4105 188.249C88.8349 188.289 88.435 187.846 88.4989 187.158C88.5659 186.437 89.1309 185.898 89.7482 185.895Z" fill="#E7EAEE"/>
<path fill-rule="evenodd" clip-rule="evenodd" d="M150.781 185.276C125.789 190.792 172.714 189.817 191.02 188.609C200.982 187.951 208.937 192.928 213.505 193.242C214.115 193.284 214.728 193.288 215.339 193.253C223.343 192.8 229.483 186.009 229.161 178.026L229.149 177.784L228.989 174.905C227.572 148.97 226.839 123.036 226.788 97.1012L226.785 94.2196C226.785 75.317 227.67 49.3928 229.44 16.4355C229.46 16.0663 229.464 15.6964 229.453 15.3269C229.23 8.17276 215.521 170.987 150.781 185.276Z" fill="#E7EAEE"/>
<path d="M224.904 178.609L224.992 178.612C225.448 178.649 225.821 179.123 225.767 179.702C225.707 180.343 225.154 180.919 224.603 180.963C224.215 180.994 223.887 180.577 223.945 179.86C224.005 179.128 224.464 178.62 224.904 178.609Z" fill="white"/>
<path fill-rule="evenodd" clip-rule="evenodd" d="M224.747 182.79C223.12 182.919 221.977 181.464 222.119 179.713C222.256 178.011 223.552 176.66 225.108 176.783C226.639 176.904 227.737 178.301 227.592 179.871C227.452 181.379 226.21 182.674 224.747 182.79ZM224.992 178.612L224.904 178.609C224.464 178.62 224.005 179.128 223.945 179.86C223.887 180.577 224.215 180.994 224.603 180.963C225.154 180.919 225.707 180.343 225.767 179.702C225.821 179.123 225.448 178.649 224.992 178.612Z" fill="white"/>
<path d="M209.425 13.1868C215.209 13.1868 219.897 17.8756 219.897 23.6595C219.897 23.876 219.891 24.0924 219.877 24.3084L219.724 26.874C219.442 31.7434 219.162 37.5248 218.882 44.2182L218.839 45.2898C218.155 63.2953 218.133 105.892 218.774 173.081C218.829 178.865 214.185 183.598 208.402 183.653C208.261 183.654 208.12 183.653 207.979 183.649L93.0829 180.104C87.7628 179.94 83.4121 175.811 82.9694 170.507L82.872 169.31C81.3588 150.236 81.2687 125.883 82.6017 96.248L82.7972 91.9982C83.478 76.4034 83.5314 53.691 82.9575 23.8609C82.8474 18.1384 87.3486 13.3997 93.0464 13.1938L93.3274 13.1873L209.425 13.1868Z" fill="white"/>
<path fill-rule="evenodd" clip-rule="evenodd" d="M132.176 136.69C137.252 136.903 142.465 136.003 146.985 133.794C152.647 131.028 156.907 126.387 159.265 119.732C162.371 110.967 161.23 101.489 156.765 93.1471C152.791 85.7223 146.543 80.0715 140.783 78.6742C140.783 78.6742 156.765 101.155 154.475 113.445C150.975 132.236 132.176 136.69 132.176 136.69Z" fill="#E7EAEE"/>
<path fill-rule="evenodd" clip-rule="evenodd" d="M135.867 110.288C138.338 111.313 139.092 113.217 138.13 116L138.075 116.156C131.819 133.332 124.442 133.488 130.755 116.156C131.52 114.056 131.33 112.445 130.186 111.323C132.208 110.913 134.101 110.568 135.867 110.288Z" fill="#E7EAEE"/>
<path fill-rule="evenodd" clip-rule="evenodd" d="M96.6874 90.2103C98.3059 85.4014 100.669 81.7863 105.086 78.928L105.648 78.5722C106.601 77.974 107.776 77.2966 108.731 77.7593C109.945 78.3473 111.703 80.4899 110.633 81.3311C109.908 81.9015 106.923 82.508 104.672 84.4797C102.015 86.8072 100.103 90.5579 100.103 91.4763C100.103 94.4725 95.7316 93.05 96.6874 90.2103Z" fill="#E7EAEE"/>
<path fill-rule="evenodd" clip-rule="evenodd" d="M91.6821 21.6682C86.1259 36.9244 86.1638 39.9514 85.8303 37.3218C84.752 28.8176 83.9388 23.2291 85.2199 19.8344C86.842 15.5367 90.9081 14.6913 91.9554 15.1901C94.1697 16.2447 91.6821 21.6682 91.6821 21.6682Z" fill="#E7EAEE"/>
<path fill-rule="evenodd" clip-rule="evenodd" d="M183.096 100.073L181.248 100.016C179.055 99.9604 177.474 99.9735 176.148 100.077C175.083 100.16 174.288 100.306 173.838 100.448L173.749 100.478L173.74 100.52C173.69 100.768 173.655 101.101 173.639 101.504L173.634 101.658C173.605 102.866 173.75 104.479 174.041 106.281C174.279 107.759 174.603 109.293 174.942 110.587L175.027 110.905C175.159 111.388 175.285 111.808 175.396 112.134L175.437 112.251L175.485 112.269C176.166 112.511 177.52 112.54 180.131 112.347L181.904 112.209C183.099 112.121 183.969 112.083 184.828 112.094L193.162 112.268C194.328 112.29 195.381 112.307 196.413 112.321L198.285 112.342C202.96 112.614 208.098 112.41 208.737 111.247C210.686 107.697 211.606 100.388 210.686 100.339C209.033 100.251 207.031 100.147 206.08 100.16L203.884 100.199L201.893 100.215C200.984 100.221 200.035 100.224 199.017 100.224L187.596 100.198C186.854 100.193 186.127 100.175 184.816 100.132L183.096 100.073Z" fill="#E7EAEE"/>
<path fill-rule="evenodd" clip-rule="evenodd" d="M95.5224 0.339798L84.9361 0.0075922C84.6109 -0.00287531 84.2855 -0.00251891 83.9604 0.0086608C75.8678 0.286943 69.533 7.07293 69.8112 15.1656L69.8919 17.6208C69.9867 20.6529 70.1311 23.6799 70.2752 26.7021L70.2752 26.7021C70.5198 31.8337 70.7638 36.9511 70.7638 42.0541L70.7978 60.5624C70.8304 86.3732 70.7522 128.881 69.6058 141.194L69.5196 142.16C68.7744 150.884 68.105 163.157 68.4873 178.981L68.5488 181.381C68.5552 181.617 68.5672 181.853 68.5846 182.089C69.2027 190.453 76.484 196.732 84.8478 196.114L87.117 195.949L87.4929 195.922C87.5328 195.989 87.5731 196.055 87.6133 196.122C87.6494 196.182 87.6855 196.241 87.7214 196.301C88.0889 196.907 88.4323 197.474 88.5121 197.753C88.7134 198.454 88.7346 199.249 88.6184 201.047L88.5006 202.733L88.4686 203.28C88.2971 206.64 88.6851 208.64 90.3243 210.145C92.4326 212.081 94.6659 211.875 99.2421 211.455L99.4478 211.436L100.626 211.322C101.987 211.19 103.519 211.297 104.562 211.369C104.862 211.39 105.122 211.408 105.326 211.417L105.711 211.436C108.337 211.541 108.754 210.676 108.984 208.54C109.11 207.362 108.946 206.436 108.254 204.046L107.736 202.284L107.564 201.672C106.756 198.686 106.83 197.195 107.883 196.474C108.138 196.3 109.205 195.982 110.436 195.616C111.702 195.24 113.14 194.812 114.047 194.434C126.249 193.933 138.451 193.682 150.654 193.682C163.475 193.682 176.358 193.959 189.301 194.513C189.215 194.653 189.2 194.855 189.291 195.137C189.394 195.455 189.783 195.675 190.281 195.956C191.6 196.702 193.68 197.879 193.196 202.446L193.198 202.633C193.271 206.233 195.453 208.345 198.963 209.062C201.31 209.541 203.98 209.396 206.888 208.892C208.328 208.642 209.255 207.742 209.698 206.37C209.942 205.613 210.03 204.932 210.087 203.577C210.087 203.577 209.447 196.536 213.007 195.832C213.113 195.839 213.219 195.847 213.325 195.854C213.737 195.882 214.15 195.896 214.563 195.894C214.619 195.908 214.675 195.922 214.732 195.937C214.903 195.983 215.065 195.957 215.212 195.88C215.304 195.877 215.395 195.872 215.487 195.867C225.015 195.328 232.302 187.167 231.763 177.639L231.603 174.762C230.137 147.915 229.403 121.067 229.403 94.2196C229.403 75.937 230.235 51.0369 231.898 19.5192L232.054 16.5759C232.078 16.1329 232.083 15.689 232.069 15.2455C231.8 6.57387 224.552 -0.237354 215.88 0.0322086L210.384 0.200995C183.148 1.02674 163.551 1.457 151.592 1.49177L149.678 1.49391C138.513 1.48528 120.461 1.10058 95.5224 0.339798ZM209.433 195.594C203.382 195.203 197.343 194.872 191.318 194.601C194.203 196.002 195.232 198.616 195.289 202.233L195.29 202.446C195.29 204.785 197.111 206.313 199.559 206.813C199.815 206.865 200.078 206.922 200.347 206.98C202.038 207.347 203.971 207.766 206.115 207.415L206.441 207.36C207.924 206.813 207.924 201.485 207.924 201.485C207.94 201.052 207.955 200.769 207.98 200.425L208.013 200.039C208.198 198.1 208.603 196.651 209.433 195.594ZM91.0288 197.031C90.8865 196.535 90.6836 196.096 90.4213 195.719C95.5584 195.372 100.696 195.069 105.833 194.81C105.03 195.704 104.955 196.912 104.925 198.356C104.9 199.599 105.151 200.922 105.68 202.784L105.711 202.896L106.195 204.542C106.787 206.576 106.965 207.426 106.915 208.139L106.904 208.26C106.833 208.921 105.984 209.667 104.549 209.584L104.292 209.571C103.677 209.477 97.6148 209.584 97.6148 209.584C94.8158 209.867 93.4682 209.477 92.0951 208.216C91.1732 207.37 90.926 205.867 91.1077 202.989L91.2209 201.374C91.3632 199.263 91.3513 198.274 91.0854 197.239L91.0288 197.031ZM84.0504 2.62529C84.3174 2.6161 84.5847 2.61581 84.8518 2.62441L94.5937 2.93079C118.569 3.66578 136.268 4.05787 147.701 4.10696L149.676 4.11209L151.595 4.10994C162.795 4.07743 180.649 3.69954 205.169 2.97634L215.961 2.64912L216.178 2.64415C223.308 2.53816 229.23 8.17277 229.453 15.3269C229.464 15.6964 229.46 16.0663 229.44 16.4355C227.67 49.3928 226.785 75.317 226.785 94.2196L226.788 97.1012C226.839 123.036 227.572 148.97 228.989 174.905L229.149 177.784L229.161 178.026C229.483 186.009 223.343 192.8 215.339 193.253C214.728 193.288 214.115 193.284 213.505 193.242C192.395 191.79 171.445 191.064 150.654 191.064C129.413 191.064 108.171 191.822 86.9306 193.337L84.6581 193.502L84.4507 193.516C77.6131 193.91 71.702 188.748 71.1956 181.896C71.1812 181.701 71.1713 181.506 71.166 181.31C70.7077 164.408 70.8678 151.421 71.6406 142.379L71.7642 140.995C72.4044 133.597 72.7495 116.6 72.8774 92.3817L72.91 84.7748C72.9337 77.602 72.9387 70.2772 72.9299 62.1614L72.8901 39.6124C72.867 32.2838 72.7399 24.926 72.5087 17.539L72.428 15.0797L72.4227 14.8804C72.3035 8.31713 77.4693 2.85159 84.0504 2.62529ZM219.897 23.6595C219.897 17.8756 215.209 13.1868 209.425 13.1868L93.3274 13.1873L93.0464 13.1938C87.3486 13.3997 82.8473 18.1384 82.9574 23.8609C83.5314 53.691 83.478 76.4034 82.7972 91.9982L82.6017 96.248C81.2686 125.883 81.3587 150.236 82.8719 169.309L82.9694 170.507C83.412 175.811 87.7628 179.94 93.0828 180.104L207.979 183.649C208.12 183.653 208.261 183.654 208.402 183.653C214.185 183.598 218.829 178.865 218.774 173.081C218.133 105.892 218.155 63.2953 218.839 45.2898L218.882 44.2182C219.162 37.5248 219.442 31.7434 219.724 26.874L219.877 24.3084C219.891 24.0924 219.897 23.8759 219.897 23.6595ZM93.4281 15.805H209.425C213.763 15.805 217.279 19.3216 217.279 23.6595C217.279 23.8218 217.274 23.9842 217.264 24.1462C216.99 28.5625 216.717 33.8346 216.444 39.9636L216.266 44.1088C215.574 60.65 215.507 100.261 216.063 163.007L216.156 173.106C216.197 177.444 212.714 180.994 208.377 181.035C208.271 181.036 208.165 181.035 208.06 181.032L93.1636 177.487L92.9905 177.48C89.0796 177.274 85.9057 174.21 85.5785 170.289C83.9662 150.97 83.8584 126.011 85.2598 95.4283L85.3914 92.5982C86.0522 77.8828 86.1461 56.7801 85.6746 29.2739L85.5751 23.8106C85.4917 19.4735 88.9399 15.8899 93.277 15.8064C93.3274 15.8055 93.3778 15.805 93.4281 15.805ZM89.4153 7.7754C89.5806 9.55533 88.2908 10.9838 86.5529 10.8642C84.9636 10.7548 83.5656 9.48571 83.4026 7.95735L83.3929 7.84562C83.2919 6.32497 84.4569 5.03228 86.0199 4.86647L86.1379 4.85616C87.8047 4.74146 89.2558 6.05883 89.4153 7.7754ZM86.3411 6.68206L86.2398 6.68589C85.6107 6.72949 85.1671 7.22076 85.225 7.76298C85.2912 8.38374 85.9546 8.98594 86.6788 9.03577C87.2544 9.07539 87.6543 8.63254 87.5904 7.94493C87.5235 7.22398 86.9585 6.68467 86.3411 6.68206ZM77.0752 21.6579C75.2634 21.8186 74.0426 20.0755 74.1932 17.9851C74.3408 15.9362 75.7479 14.2895 77.4902 14.444L77.6027 14.4563C79.203 14.6645 80.3084 16.2386 80.2178 18.0031L80.2095 18.1265C80.0603 19.9302 78.7078 21.513 77.0752 21.6579ZM77.3557 16.2716L77.2668 16.2673C76.711 16.2741 76.0999 17.0251 76.0212 18.1168C75.9426 19.2075 76.4114 19.8769 76.9132 19.8324C77.5942 19.7719 78.303 18.9424 78.383 17.9754C78.4587 17.0599 77.9434 16.3242 77.3557 16.2716ZM212.738 7.7754C212.573 9.55533 213.863 10.9838 215.601 10.8642C217.19 10.7548 218.588 9.48571 218.751 7.95735L218.761 7.84562C218.862 6.32497 217.697 5.03228 216.134 4.86647L216.016 4.85616C214.349 4.74146 212.898 6.05883 212.738 7.7754ZM215.813 6.68206L215.914 6.68589C216.543 6.72949 216.986 7.22076 216.929 7.76298C216.862 8.38374 216.199 8.98594 215.475 9.03577C214.899 9.07539 214.499 8.63254 214.563 7.94493C214.63 7.22398 215.195 6.68467 215.813 6.68206ZM222.497 18.6622C221.524 17.217 222.117 15.3857 223.741 14.639C225.307 13.9188 227.173 14.5169 227.908 16.0177L227.958 16.125C228.596 17.5615 228.058 19.2167 226.691 19.8896L226.589 19.9371C225.184 20.5601 223.386 19.9839 222.497 18.6622ZM226.272 16.8443L226.225 16.7546C225.914 16.2213 225.164 16.0016 224.506 16.3041C223.879 16.5926 223.695 17.1603 224.017 17.639C224.423 18.2413 225.276 18.5147 225.847 18.2617C226.345 18.0406 226.549 17.4108 226.272 16.8443ZM75.781 175.519C74.5102 176.776 74.5801 178.7 75.9883 179.725C77.2761 180.663 79.1628 180.59 80.27 179.523L80.3493 179.444C81.4041 178.344 81.3426 176.605 80.2518 175.473L80.1681 175.39C78.965 174.23 77.0066 174.307 75.781 175.519ZM78.8387 176.658L78.9139 176.726C79.3678 177.164 79.3918 177.825 78.999 178.203C78.5492 178.636 77.654 178.671 77.0672 178.244C76.6007 177.904 76.579 177.308 77.07 176.822C77.5847 176.313 78.3642 176.263 78.8387 176.658ZM87.5082 189.151C86.1 188.125 86.0302 186.202 87.3009 184.945C88.5265 183.732 90.4849 183.656 91.688 184.815L91.7717 184.899C92.8625 186.03 92.924 187.77 91.8692 188.869L91.79 188.949C90.6827 190.015 88.796 190.088 87.5082 189.151ZM90.4338 186.151L90.3587 186.083C89.8841 185.688 89.1046 185.738 88.5899 186.247C88.099 186.733 88.1206 187.329 88.5871 187.669C89.1739 188.096 90.0691 188.062 90.5189 187.629C90.9117 187.25 90.8877 186.589 90.4338 186.151ZM216.435 185.553C214.976 187.025 214.937 189.189 216.491 190.302C217.914 191.322 220.046 191.121 221.321 189.866C222.642 188.565 222.68 186.472 221.38 185.199C220.064 183.911 217.857 184.119 216.435 185.553ZM220.04 186.456L220.114 186.525C220.653 187.053 220.637 187.967 220.035 188.56C219.387 189.198 218.247 189.305 217.558 188.812C217.001 188.413 217.016 187.57 217.736 186.844C218.467 186.106 219.484 185.987 220.04 186.456ZM224.747 182.79C223.12 182.919 221.977 181.464 222.119 179.713C222.256 178.011 223.552 176.66 225.109 176.783C226.639 176.904 227.737 178.301 227.592 179.871C227.452 181.379 226.21 182.674 224.747 182.79ZM224.992 178.612L224.904 178.609C224.464 178.62 224.005 179.128 223.945 179.86C223.887 180.577 224.215 180.994 224.603 180.963C225.154 180.919 225.707 180.343 225.767 179.702C225.821 179.123 225.448 178.649 224.992 178.612Z" fill="#00160A"/>
<path fill-rule="evenodd" clip-rule="evenodd" d="M87.3009 184.945C86.0301 186.202 86.1 188.125 87.5082 189.151C88.796 190.088 90.6827 190.015 91.7899 188.949L91.8692 188.869C92.924 187.77 92.8625 186.03 91.7717 184.899L91.688 184.815C90.4849 183.656 88.5265 183.732 87.3009 184.945ZM90.3587 186.083L90.4338 186.151C90.8877 186.589 90.9117 187.25 90.5189 187.629C90.0691 188.062 89.1739 188.096 88.5871 187.669C88.1206 187.329 88.0989 186.733 88.5899 186.247C89.1046 185.738 89.8841 185.688 90.3587 186.083Z" fill="#00160A"/>
<path d="M220.04 186.456L220.115 186.525C220.653 187.053 220.637 187.967 220.035 188.56C219.387 189.198 218.247 189.305 217.558 188.812C217.001 188.413 217.016 187.57 217.736 186.844C218.467 186.106 219.484 185.987 220.04 186.456Z" fill="white"/>
<path fill-rule="evenodd" clip-rule="evenodd" d="M104.472 74.075C103.868 74.2849 103.322 74.5696 102.649 74.9845L102.131 75.3089L101.875 75.4724C97.97 77.9929 95.3631 81.1273 93.5085 85.372L93.4092 85.6018L93.3349 85.5795C92.8426 85.4351 92.3964 85.3643 91.9193 85.404C90.9024 85.4885 89.9544 86.0978 89.6158 87.2337C89.0869 89.0076 89.3053 91.0363 89.9919 93.1132L90.1207 93.4935C90.7906 95.4187 91.532 96.7252 92.7647 97.1066C94.4034 97.6136 100.065 95.3694 102.039 93.3328C103.448 91.8801 102.884 90.1034 101.543 89.078L101.42 88.987L101.291 88.8974L101.144 88.8022L101.242 88.6265C101.311 88.5058 101.382 88.3831 101.457 88.2592C102.258 86.9317 103.259 85.6765 104.273 84.788C104.663 84.4459 105.115 84.1323 105.63 83.8397C106.426 83.387 109.603 82.1398 110.138 81.7192C111.856 80.3681 111.657 78.4114 110.571 76.7153C109.895 75.6603 108.833 74.6718 107.806 74.1745C106.727 73.6522 105.599 73.6836 104.472 74.075ZM106.779 76.2953C107.993 76.8832 109.751 79.0259 108.681 79.8671C107.956 80.4375 104.971 81.044 102.72 83.0156C100.063 85.3432 98.1509 89.0938 98.1509 90.0122L98.4539 90.126C100.111 90.7636 100.742 91.2858 100.347 91.6927C98.5904 93.5052 93.8148 94.965 93.4612 94.8556C93.1132 94.7479 91.0528 90.6611 91.8739 87.9069C91.9837 87.5387 92.9375 87.8185 94.7354 88.7463C96.3539 83.9373 98.7174 80.3223 103.134 77.464L103.696 77.1082C104.649 76.51 105.824 75.8326 106.779 76.2953Z" fill="#00160A"/>
<path fill-rule="evenodd" clip-rule="evenodd" d="M108.047 128.299C98.3473 117.699 97.7859 99.6161 108.265 87.9711C114.775 80.7363 130.076 76.0765 140.783 78.6742C146.543 80.0715 152.791 85.7223 156.765 93.1471C161.23 101.489 162.371 110.967 159.265 119.732C156.907 126.387 152.647 131.028 146.985 133.794C142.465 136.003 137.252 136.903 132.176 136.69C123.016 136.304 111.626 132.21 108.047 128.299ZM154.457 94.3826C150.807 87.5639 145.12 82.4204 140.166 81.2186L139.871 81.1494C130.104 78.9341 116.015 83.2716 110.211 89.7223C100.655 100.342 101.169 116.904 109.978 126.532C113.019 129.854 123.76 133.715 132.286 134.074C136.954 134.27 141.739 133.444 145.836 131.442C150.893 128.971 154.673 124.853 156.797 118.858C159.642 110.83 158.592 102.108 154.457 94.3826ZM149.413 119.468C155.207 109.297 147.353 87.3346 136.383 85.5018C126.071 83.779 122.162 86.2802 117.715 90.1365L116.855 90.8908C108.152 98.5859 108.152 115.117 116.655 122.786C118.792 124.714 128.193 129.658 135.407 128.146C140.19 127.143 146.847 123.972 149.413 119.468ZM125.202 88.3707C125.748 88.1749 126.324 88.0136 126.937 87.8879C126.855 88.0785 126.784 88.2808 126.726 88.4946C126.401 89.6903 126.434 90.7133 126.785 93.2031L127.025 94.8531C127.045 94.9986 127.063 95.1319 127.082 95.2685L127.134 95.6882C127.507 98.8404 127.169 100.485 125.759 101.392C124.469 102.221 123.201 102.535 120.304 102.872L119.218 102.995C117.882 103.149 117.18 103.256 116.336 103.446L115.953 103.523C114.783 103.769 113.812 104.075 113.058 104.459C113.555 99.9563 115.399 95.6729 118.59 92.8522C121.599 90.1918 123.117 89.1184 125.202 88.3707ZM135.952 88.0841C135.528 88.0133 135.116 87.9499 134.714 87.8938C134.798 88.1067 134.87 88.333 134.928 88.5722C135.173 89.5708 135.216 90.4573 135.156 92.4773L135.127 93.3487C135.097 94.1875 135.082 94.6866 135.078 95.1659L135.078 95.7406C135.103 98.2958 135.503 99.9945 136.486 101.145L136.595 101.267L136.638 101.286C136.699 101.31 136.776 101.338 136.868 101.369L136.965 101.4C137.19 101.472 137.472 101.552 137.834 101.647L138.438 101.801L141.018 102.433C141.525 102.559 141.976 102.674 142.408 102.788L143.118 102.979C145.251 103.567 146.886 104.139 148.076 104.778C146.299 96.825 141.409 88.9958 135.952 88.0841ZM148.362 110.628C148.509 110.534 148.648 110.438 148.78 110.342C148.844 113.308 148.346 116.051 147.138 118.172C145.404 121.217 140.585 124.117 135.88 125.345C135.999 125.045 136.096 124.719 136.17 124.369C136.399 123.295 136.436 122.065 136.345 120.323L136.289 119.386L136.203 118.153C136.042 115.69 136.081 114.66 136.296 114.413C137.262 113.303 138.6 112.878 142.005 112.389L142.795 112.277C145.642 111.861 146.977 111.51 148.362 110.628ZM128.35 124.069C128.386 124.511 128.533 124.962 128.771 125.388C127.563 125.133 126.307 124.766 125.027 124.297C122.163 123.249 119.386 121.724 118.408 120.842C115.303 118.041 113.515 113.813 113.046 109.361C113.85 109.732 114.914 110.045 116.235 110.358L116.438 110.406C116.972 110.53 117.517 110.645 118.16 110.772L119.999 111.129C124.115 111.974 126.24 112.955 127.211 114.264L127.309 114.401C127.952 115.339 128.13 116.4 128.182 119.157L128.211 121.121C128.234 122.297 128.27 123.076 128.35 124.069ZM131.446 87.999L131.565 88.0096C132.676 88.1423 132.911 89.1728 132.78 93.0601L132.735 94.4077C132.725 94.8141 132.72 95.1413 132.72 95.4998C132.722 97.9371 133.014 99.8306 133.797 101.347C133.651 101.269 133.484 101.225 133.307 101.225L133.129 101.227L133.084 101.229L133.064 101.22C132.763 101.109 132.435 101.144 132.169 101.301L132.142 101.317L132.05 101.332C129.766 101.713 127.496 103.077 126.279 104.884C124.974 106.822 125.039 108.938 126.528 110.75C125.111 110.002 123.23 109.402 120.749 108.878L119.948 108.717C119.477 108.626 118.89 108.513 118.889 108.513L118.416 108.42C117.959 108.329 117.554 108.243 117.165 108.155L116.971 108.11C115.789 107.836 114.856 107.555 114.204 107.261L114.1 107.213C113.899 107.117 113.74 107.025 113.627 106.943L113.612 106.932L113.64 106.902C113.721 106.822 113.843 106.731 114.01 106.635C114.582 106.304 115.525 106.002 116.818 105.752L117.145 105.682C117.72 105.563 118.284 105.479 119.165 105.374L120.593 105.211C123.842 104.832 125.347 104.459 127.034 103.373C129.495 101.789 129.965 99.3131 129.446 95.1826L129.389 94.7467C129.36 94.5328 129.328 94.3104 129.286 94.0259L129.124 92.9099C128.832 90.8347 128.79 89.9441 128.982 89.1818L129 89.1128C129.233 88.2537 129.829 87.8982 131.446 87.999ZM129.013 112.74C129.044 112.78 129.074 112.82 129.104 112.861C130.217 114.362 130.473 115.688 130.537 119.074L130.563 120.862C130.583 121.981 130.612 122.719 130.675 123.573L130.699 123.88C130.748 124.485 131.781 125.447 132.922 125.229C133.811 125.06 134.155 123.604 133.987 120.362L133.964 119.956L133.834 118.054C133.629 114.94 133.694 113.906 134.405 113.003C132.701 113.645 130.719 113.614 129.013 112.74ZM137.154 111.037C138.21 110.637 139.555 110.367 141.423 110.093L142.436 109.948C144.802 109.602 145.946 109.319 146.916 108.75L147.095 108.64C148.192 107.942 148.297 107.802 147.81 107.409L147.652 107.286C146.789 106.637 145.124 105.989 142.726 105.316L142.219 105.176C141.672 105.028 141.11 104.884 140.448 104.719L137.692 104.043C137.171 103.912 136.755 103.803 136.416 103.703C138.546 105.955 138.898 108.49 137.435 110.655L137.352 110.774C137.288 110.864 137.222 110.951 137.154 111.037ZM132.47 103.386L132.619 103.365L132.724 103.428C136.149 105.511 136.912 107.78 135.645 109.56C134.385 111.331 131.618 111.943 129.633 110.685C127.331 109.226 126.948 107.64 128.017 106.054C128.919 104.714 130.723 103.654 132.47 103.386Z" fill="#00160A"/>
<path d="M168.182 99.3469C168.194 98.8431 168.236 98.4733 168.286 98.2227C168.314 98.213 168.344 98.2029 168.377 98.1925C168.666 98.1017 169.059 98.0149 169.568 97.9428C170.594 97.7976 171.888 97.7389 173.369 97.7358C174.84 97.7328 176.411 97.7841 177.984 97.8386C178.079 97.8419 178.173 97.8452 178.268 97.8484C179.725 97.8991 181.189 97.95 182.489 97.9515C183.985 97.9531 185.509 97.9583 187.046 97.9635C190.811 97.9764 194.655 97.9895 198.368 97.9513C198.542 97.9495 198.787 97.9444 199.089 97.9381C200.279 97.9132 202.355 97.8698 204.487 97.9385C205.82 97.9814 207.093 98.0666 208.109 98.2137C208.618 98.2873 209.008 98.3689 209.284 98.449C209.319 98.4594 209.35 98.469 209.378 98.4779C209.394 98.5117 209.412 98.553 209.432 98.6027C209.556 98.9112 209.683 99.3835 209.776 100.023C209.962 101.3 209.969 102.936 209.777 104.574C209.583 106.228 209.209 107.696 208.748 108.693C208.51 109.209 208.327 109.443 208.238 109.538C201.793 110.206 191.033 109.971 182.342 109.781C181.364 109.76 180.413 109.739 179.496 109.72C178.324 109.696 177.116 109.774 176.008 109.86C175.728 109.882 175.457 109.904 175.193 109.926C174.365 109.993 173.602 110.054 172.86 110.086C171.884 110.127 171.116 110.105 170.522 110.006C170.279 109.965 170.098 109.917 169.964 109.87C169.853 109.551 169.719 109.115 169.572 108.576C169.23 107.318 168.86 105.656 168.587 103.958C168.311 102.242 168.151 100.6 168.182 99.3469ZM168.356 97.9534C168.363 97.9351 168.367 97.9271 168.367 97.9277C168.368 97.9282 168.364 97.9374 168.356 97.9534Z" stroke="#FE7624" stroke-width="5.36509"/>
<path fill-rule="evenodd" clip-rule="evenodd" d="M182.463 95.5226C183.973 95.5242 185.505 95.5294 187.046 95.5347C190.215 95.5455 193.424 95.5564 196.567 95.5368L198.311 95.5226C198.461 95.521 198.683 95.5163 198.963 95.5104C201.585 95.4551 209.325 95.2918 211.028 96.5837C213.812 98.6971 212.704 112.003 208.722 112.435C202.115 113.153 191.012 112.909 182.271 112.717L182.269 112.717L182.259 112.717L182.258 112.717C181.276 112.695 180.324 112.674 179.412 112.656C178.139 112.629 176.77 112.74 175.417 112.85L175.417 112.85C172.384 113.096 169.438 113.335 167.871 112.003C167.062 111.316 163.948 98.2385 166.374 96.4426C168.227 95.07 173.542 95.2547 178.317 95.4206C179.502 95.4618 180.654 95.5019 181.712 95.5166L181.714 95.5152L181.715 95.5167C181.97 95.5202 182.22 95.5223 182.463 95.5226ZM179.27 98.0727C179.527 98.0812 179.763 98.0887 179.98 98.0954C180.156 99.1796 180.176 101.085 180.049 103.892L179.956 105.92C179.874 107.816 179.843 109.107 179.898 110.048L179.282 110.035C178.423 110.024 177.552 110.062 176.358 110.15L174.585 110.288C171.974 110.481 170.62 110.452 169.939 110.21L169.89 110.192L169.85 110.076C169.739 109.749 169.612 109.329 169.481 108.846L169.396 108.528C169.057 107.235 168.732 105.7 168.494 104.222C168.204 102.42 168.058 100.807 168.088 99.599L168.093 99.4449C168.108 99.0426 168.144 98.7095 168.194 98.4607L168.203 98.4188L168.292 98.389C168.742 98.2468 169.537 98.1014 170.602 98.0182C171.928 97.9146 173.508 97.9015 175.701 97.9573L177.55 98.0139L179.27 98.0727ZM187.615 110.21L182.554 110.104C182.527 109.807 182.507 109.442 182.5 109.02L182.499 108.929C182.49 108.266 182.504 107.632 182.55 106.52L182.697 103.247C182.787 100.999 182.79 99.367 182.641 98.1405L193.471 98.1655C194.051 98.165 194.608 98.1639 195.149 98.162C194.983 101.419 195.247 107.117 195.585 110.299C194.672 110.298 193.723 110.292 192.739 110.283L190.867 110.262C189.835 110.248 188.781 110.231 187.615 110.21ZM198.245 110.29C202.268 110.257 205.499 110.126 208.003 109.878L208.237 109.853L208.268 109.821C208.402 109.669 208.558 109.426 208.717 109.1L208.777 108.974C209.248 107.957 209.62 106.476 209.812 104.835C210.002 103.212 210 101.567 209.811 100.268C209.724 99.6682 209.601 99.1764 209.463 98.8323L209.423 98.7397L209.394 98.6785L209.29 98.6459C209.01 98.563 208.625 98.4833 208.154 98.4132C207.226 98.275 206.032 98.1827 204.634 98.1336C203.334 98.088 202.013 98.0812 200.534 98.1008L198.338 98.1406L197.714 98.1456C197.693 98.4996 197.679 98.9206 197.673 99.3924L197.671 99.5456C197.661 100.822 197.706 102.43 197.797 104.21L197.816 104.568C197.891 105.965 197.99 107.408 198.096 108.677L198.161 109.416C198.189 109.731 198.218 110.025 198.245 110.29ZM186.715 102.563L186.954 102.905C187.226 103.289 187.484 103.629 187.729 103.929C187.4 104.647 187.227 105.452 187.173 106.49C187.153 106.867 187.443 107.188 187.82 107.208C188.197 107.228 188.519 106.938 188.539 106.561C188.57 105.963 188.643 105.471 188.773 105.033C189.53 105.695 190.193 105.941 190.889 105.954L191.024 105.954C191.402 105.954 191.708 105.648 191.708 105.27C191.708 104.916 191.439 104.625 191.094 104.59L191.024 104.587L190.909 104.587C190.463 104.576 190.013 104.388 189.401 103.77C189.6 103.491 189.84 103.215 190.128 102.919L190.861 102.194C191.13 101.928 191.132 101.495 190.866 101.227C190.6 100.958 190.167 100.957 189.899 101.222L189.284 101.827C188.986 102.126 188.724 102.413 188.495 102.7L188.247 102.363C188.118 102.185 187.984 101.994 187.843 101.789C187.629 101.477 187.203 101.398 186.892 101.612C186.58 101.826 186.501 102.251 186.715 102.563ZM205.389 101.912L205.395 101.494C205.398 101.117 205.095 100.808 204.717 100.805C204.34 100.802 204.031 101.105 204.028 101.483C204.024 101.898 204.014 102.271 203.996 102.604C203.646 102.493 203.268 102.402 202.854 102.321L202.006 102.163C201.635 102.093 201.278 102.337 201.207 102.708C201.137 103.079 201.38 103.437 201.751 103.507L202.765 103.698C203.169 103.782 203.523 103.877 203.844 103.997C203.682 104.852 203.414 105.259 203.05 105.517L202.955 105.582L202.899 105.624C202.632 105.845 202.572 106.237 202.77 106.531C202.981 106.844 203.406 106.927 203.72 106.715L203.831 106.64C204.401 106.24 204.813 105.666 205.071 104.693C205.423 104.983 205.759 105.351 206.119 105.829C206.346 106.13 206.775 106.191 207.077 105.963C207.379 105.736 207.439 105.307 207.212 105.006C206.587 104.176 205.993 103.605 205.319 103.194C205.354 102.808 205.378 102.382 205.389 101.912Z" fill="#00160A"/>
<path fill-rule="evenodd" clip-rule="evenodd" d="M175.553 101.853L175.445 102.257C175.321 102.711 175.195 103.118 175.067 103.484C175.622 104.046 176.06 104.744 176.466 105.7C176.613 106.048 176.451 106.449 176.103 106.597C175.756 106.744 175.354 106.582 175.207 106.234C174.973 105.683 174.736 105.245 174.464 104.879C173.979 105.76 173.44 106.218 172.79 106.468L172.664 106.514C172.309 106.643 171.916 106.46 171.787 106.105C171.666 105.773 171.819 105.407 172.131 105.256L172.196 105.229L172.304 105.19C172.72 105.027 173.078 104.697 173.442 103.907C173.16 103.713 172.839 103.535 172.468 103.356L171.53 102.925C171.187 102.767 171.037 102.36 171.195 102.017C171.354 101.674 171.76 101.525 172.103 101.683L172.887 102.041C173.269 102.219 173.613 102.399 173.927 102.591C174.024 102.272 174.125 101.914 174.229 101.512C174.323 101.146 174.696 100.926 175.062 101.02C175.427 101.115 175.647 101.488 175.553 101.853Z" fill="#64FCD9"/>
</g>
</svg>
